<?xml version="1.0" standalone="no"?>
<!DOCTYPE svg PUBLIC "-//W3C//DTD SVG 20010904//EN"
 "http://www.w3.org/TR/2001/REC-SVG-20010904/DTD/svg10.dtd">
<svg version="1.0" xmlns="http://www.w3.org/2000/svg"
 width="1017.959145pt" height="176.383632pt" viewBox="0 0 1017.959145 176.383632"
 preserveAspectRatio="xMidYMid meet">
<metadata>
Created by potrace 1.12, written by Peter Selinger 2001-2015
</metadata>
<g transform="translate(-143.000000,344.808520) scale(0.100000,-0.100000)"
fill="#000000" stroke="none">
<path d="M5911 3439 c-73 -29 -113 -84 -113 -154 0 -72 39 -126 108 -150 l36
-12 -43 -45 c-24 -24 -66 -62 -92 -83 l-48 -40 41 -58 41 -57 46 31 c25 17 76
61 114 97 131 123 180 283 120 390 -40 69 -141 109 -210 81z"/>
<path d="M4030 2600 l0 -790 150 0 150 0 0 790 0 790 -150 0 -150 0 0 -790z"/>
<path d="M10967 3212 c-32 -92 -61 -175 -64 -184 -5 -17 5 -18 123 -18 l129 0
31 58 c53 95 164 305 164 309 0 2 -73 3 -162 3 l-163 0 -58 -168z"/>
<path d="M1430 2580 l0 -770 545 0 545 0 0 150 0 150 -390 0 -390 0 0 620 0
620 -155 0 -155 0 0 -770z"/>
<path d="M10045 3325 c-96 -21 -155 -53 -220 -119 -78 -78 -105 -145 -112
-273 l-6 -93 -88 0 -89 0 0 -120 0 -120 90 0 90 0 0 -445 0 -445 145 0 145 0
0 445 0 445 175 0 175 0 0 120 0 120 -175 0 -175 0 0 38 c0 169 139 241 338
176 29 -9 54 -15 57 -13 2 3 24 52 48 111 l45 106 -57 26 c-117 52 -264 68
-386 41z"/>
<path d="M3053 2956 c-149 -36 -315 -170 -381 -308 -82 -170 -83 -362 -1 -537
101 -216 334 -345 589 -327 165 11 278 62 391 175 122 122 169 238 169 420 0
53 -7 119 -16 155 -52 202 -225 374 -425 421 -77 18 -253 18 -326 1z m303
-289 c60 -30 118 -92 148 -156 31 -68 30 -208 -3 -271 -54 -103 -111 -150
-213 -176 -76 -20 -133 -13 -214 26 -92 45 -144 118 -165 233 -29 155 57 307
204 359 73 26 175 20 243 -15z"/>
<path d="M4966 2955 c-109 -28 -220 -100 -302 -197 -147 -174 -176 -439 -72
-654 46 -97 158 -208 258 -258 180 -88 402 -86 585 6 92 47 201 162 255 270
55 112 87 143 143 143 72 0 134 -31 163 -80 14 -24 58 -75 99 -114 85 -80 135
-101 245 -101 77 0 121 12 168 47 66 49 77 108 36 191 -31 62 -56 77 -144 86
-130 15 -292 57 -375 98 -126 63 -245 166 -364 315 -154 193 -272 253 -506
259 -91 2 -148 -1 -189 -11z m303 -285 c179 -91 234 -311 120 -483 -40 -61
-102 -103 -180 -123 -77 -20 -134 -13 -216 27 -245 118 -219 498 39 591 69 24
177 19 237 -12z"/>
<path d="M7335 2855 c-130 -28 -255 -107 -332 -210 -49 -66 -108 -104 -162
-105 -69 0 -215 97 -226 153 -18 83 -53 110 -192 148 -94 26 -183 21 -252 -13
-61 -31 -81 -63 -88 -135 -11 -123 38 -162 232 -183 124 -13 193 -33 314 -93
121 -60 170 -108 224 -220 24 -50 57 -126 73 -167 24 -66 38 -86 113 -160 94
-93 166 -135 281 -165 90 -24 290 -16 374 14 117 42 219 117 283 207 l41 59
-120 70 c-113 64 -121 67 -131 49 -22 -42 -97 -103 -154 -124 -90 -36 -184
-32 -268 9 -111 55 -167 151 -167 286 -1 99 27 171 92 233 69 67 120 87 225
87 77 -1 97 -5 140 -27 54 -29 98 -66 131 -112 l21 -29 114 63 c63 34 116 64
117 66 9 7 -54 97 -100 143 -88 88 -183 139 -302 162 -68 13 -209 10 -281 -6z"/>
<path d="M8553 2855 c-152 -42 -283 -152 -352 -294 -49 -101 -65 -193 -58
-326 8 -164 64 -293 174 -400 189 -184 501 -202 693 -40 l45 38 3 -62 3 -61
139 0 140 0 0 565 0 565 -140 0 -140 0 0 -60 0 -61 -64 50 c-93 71 -158 93
-286 97 -72 3 -121 -1 -157 -11z m335 -286 c94 -47 154 -129 170 -232 19 -123
-16 -226 -104 -306 -137 -126 -349 -104 -458 46 -122 167 -63 413 119 499 40
19 67 24 131 24 70 0 89 -4 142 -31z"/>
<path d="M10874 2850 c-109 -28 -171 -65 -254 -149 -126 -127 -179 -277 -167
-469 17 -246 154 -436 370 -509 132 -44 349 -46 490 -3 77 24 188 76 224 106
l22 19 -53 93 c-29 51 -56 95 -59 98 -3 3 -38 -10 -79 -29 -110 -52 -181 -70
-283 -71 -63 0 -106 5 -144 18 -84 29 -159 107 -185 194 l-7 22 424 0 424 0 7
46 c10 73 7 136 -9 221 -40 208 -189 364 -400 418 -82 21 -232 19 -321 -5z
m264 -236 c87 -28 159 -107 177 -191 l7 -33 -286 0 c-228 0 -286 3 -286 13 0
30 55 120 96 156 74 65 192 87 292 55z"/>
</g>
</svg>
