<?xml version="1.0" standalone="no"?>
<!DOCTYPE svg PUBLIC "-//W3C//DTD SVG 20010904//EN"
 "http://www.w3.org/TR/2001/REC-SVG-20010904/DTD/svg10.dtd">
<svg version="1.0" xmlns="http://www.w3.org/2000/svg"
 width="512.000000pt" height="512.000000pt" viewBox="0 0 512.000000 512.000000"
 preserveAspectRatio="xMidYMid meet">

<g transform="translate(0.000000,512.000000) scale(0.100000,-0.100000)"
fill="#000000" stroke="none">
<path d="M1685 4791 c-90 -22 -173 -90 -215 -176 -20 -43 -25 -68 -28 -172
l-4 -123 -99 0 c-54 0 -122 -5 -151 -11 -183 -38 -339 -194 -377 -377 -16 -75
-16 -3149 0 -3224 38 -183 194 -339 377 -377 75 -16 2669 -16 2744 0 181 38
326 180 373 365 13 53 15 188 13 1072 -3 1003 -3 1011 -24 1038 -39 53 -71 69
-134 69 -63 0 -95 -16 -134 -69 -21 -27 -21 -37 -26 -1039 l-5 -1012 -23 -37
c-13 -21 -40 -45 -66 -57 -42 -21 -48 -21 -1348 -21 l-1305 0 -43 23 c-30 16
-51 37 -67 67 l-23 43 0 1547 0 1547 23 43 c35 67 87 90 202 90 l93 0 7 -47
c15 -103 72 -183 167 -234 l63 -34 885 0 885 0 51 27 c28 15 65 38 81 52 39
33 90 129 98 189 l7 47 91 0 c109 0 164 -21 199 -78 23 -36 23 -43 28 -409 5
-356 6 -373 26 -399 39 -53 71 -69 134 -69 63 0 95 16 134 69 20 26 21 42 24
389 2 242 -1 382 -8 422 -36 187 -192 345 -378 384 -29 6 -97 11 -151 11 l-99
0 -4 123 c-4 116 -6 125 -38 185 -36 68 -78 109 -150 144 l-45 23 -865 2
c-476 0 -878 -2 -895 -6z m1675 -551 l0 -240 -800 0 -800 0 0 240 0 240 800 0
800 0 0 -240z"/>
<path d="M1535 3346 c-67 -29 -105 -106 -91 -181 9 -47 59 -102 104 -115 25
-8 209 -10 554 -8 504 3 517 4 544 24 53 39 69 71 69 134 0 63 -16 95 -69 134
-27 21 -40 21 -554 23 -423 2 -533 0 -557 -11z"/>
<path d="M1535 2706 c-67 -29 -105 -106 -91 -181 9 -47 59 -102 104 -115 25
-8 353 -10 1034 -8 989 3 997 3 1024 24 53 39 69 71 69 134 0 63 -16 95 -69
134 -27 21 -35 21 -1034 23 -822 2 -1013 0 -1037 -11z"/>
<path d="M1535 2066 c-67 -29 -105 -106 -91 -181 9 -47 59 -102 104 -115 25
-8 353 -10 1034 -8 989 3 997 3 1024 24 53 39 69 71 69 134 0 63 -16 95 -69
134 -27 21 -35 21 -1034 23 -822 2 -1013 0 -1037 -11z"/>
<path d="M1535 1426 c-67 -29 -105 -106 -91 -181 9 -47 59 -102 104 -115 25
-8 353 -10 1034 -8 989 3 997 3 1024 24 53 39 69 71 69 134 0 63 -16 95 -69
134 -27 21 -35 21 -1034 23 -822 2 -1013 0 -1037 -11z"/>
</g>
</svg>
