<?xml version="1.0" encoding="utf-8"?>
<!-- Uploaded to: SVG Repo, www.svgrepo.com, Generator: SVG Repo Mixer Tools -->
<svg fill="#000000" width="800px" height="800px" viewBox="0 0 32 32" version="1.1" xmlns="http://www.w3.org/2000/svg">
<title>mobile</title>
<path d="M22 1.25h-12c-1.518 0.002-2.748 1.232-2.75 2.75v24c0.002 1.518 1.232 2.748 2.75 2.75h12c1.518-0.002 2.748-1.232 2.75-2.75v-24c-0.002-1.518-1.232-2.748-2.75-2.75h-0zM23.25 28c-0.001 0.69-0.56 1.249-1.25 1.25h-12c-0.69-0.001-1.249-0.56-1.25-1.25v-24c0.001-0.69 0.56-1.249 1.25-1.25h12c0.69 0.001 1.249 0.56 1.25 1.25v0zM18 25.75h-4c-0.414 0-0.75 0.336-0.75 0.75s0.336 0.75 0.75 0.75v0h4c0.414 0 0.75-0.336 0.75-0.75s-0.336-0.75-0.75-0.75v0z"></path>
</svg>