<?xml version="1.0" standalone="no"?>
<!DOCTYPE svg PUBLIC "-//W3C//DTD SVG 20010904//EN"
 "http://www.w3.org/TR/2001/REC-SVG-20010904/DTD/svg10.dtd">
<svg version="1.0" xmlns="http://www.w3.org/2000/svg"
 width="1920.000000pt" height="1164.000000pt" viewBox="0 0 1920.000000 1164.000000"
 preserveAspectRatio="xMidYMid meet">

<g transform="translate(0.000000,1164.000000) scale(0.100000,-0.100000)"
fill="#000000" stroke="none">
<path d="M8750 11472 c0 -24 -72 -768 -85 -882 -76 -651 -214 -1110 -509
-1685 -231 -451 -440 -767 -1021 -1540 -484 -645 -642 -870 -822 -1170 -346
-576 -554 -1150 -638 -1760 -22 -158 -31 -612 -16 -783 60 -663 296 -1307 706
-1927 419 -635 962 -1077 1720 -1400 159 -68 158 -69 45 56 -198 220 -356 449
-486 704 -420 828 -452 1796 -85 2550 95 195 266 443 374 543 l25 23 6 -58
c81 -697 268 -1080 611 -1250 62 -31 164 -68 170 -62 1 2 -1 42 -6 89 -5 47
-12 238 -16 425 -8 458 11 705 82 1060 70 351 169 639 326 955 179 357 388
650 679 954 104 108 259 250 265 244 3 -3 12 -81 20 -174 44 -500 136 -858
314 -1222 134 -271 228 -414 608 -927 570 -770 760 -1137 854 -1655 31 -165
37 -489 15 -669 -32 -248 -101 -480 -212 -710 -129 -269 -267 -462 -499 -701
-154 -158 -224 -240 -207 -240 20 0 311 133 447 204 847 444 1440 1083 1814
1960 504 1176 421 2520 -249 4046 -40 91 -160 348 -266 572 -106 224 -211 445
-233 492 l-39 84 -41 -10 c-29 -7 -43 -17 -46 -32 -3 -11 -16 -72 -30 -135
-86 -389 -248 -683 -482 -871 -85 -69 -176 -130 -193 -130 -6 0 -10 65 -10
193 0 523 -80 1084 -225 1587 -355 1229 -1128 2242 -2326 3047 -170 114 -325
213 -334 213 -3 0 -5 -4 -5 -8z"/>
</g>
</svg>
