<?xml version="1.0" standalone="no"?>
<!DOCTYPE svg PUBLIC "-//W3C//DTD SVG 20010904//EN"
 "http://www.w3.org/TR/2001/REC-SVG-20010904/DTD/svg10.dtd">
<svg version="1.0" xmlns="http://www.w3.org/2000/svg"
 width="512.000000pt" height="512.000000pt" viewBox="0 0 512.000000 512.000000"
 preserveAspectRatio="xMidYMid meet">

<g transform="translate(0.000000,512.000000) scale(0.100000,-0.100000)"
fill="#000000" stroke="none">
<path d="M2325 4949 c-254 -24 -579 -117 -819 -234 -232 -113 -504 -310 -672
-487 -626 -660 -832 -1573 -548 -2427 239 -718 797 -1276 1514 -1515 1022
-340 2128 31 2738 917 560 814 560 1900 0 2714 -497 722 -1337 1114 -2213
1032z m450 -409 c362 -42 703 -179 997 -401 106 -80 287 -261 367 -367 549
-726 549 -1698 0 -2424 -80 -106 -261 -287 -367 -367 -618 -467 -1430 -542
-2113 -195 -963 490 -1360 1657 -895 2629 103 215 219 380 390 551 316 315
708 509 1151 568 122 17 349 19 470 6z"/>
<path d="M3275 3304 c-16 -9 -257 -243 -535 -520 l-505 -504 -230 231 c-127
127 -241 236 -255 243 -92 48 -216 12 -266 -78 -31 -54 -36 -104 -19 -162 13
-44 43 -78 312 -346 332 -332 346 -342 463 -342 125 1 107 -15 727 607 308
309 569 578 579 597 42 84 11 202 -69 257 -50 34 -154 43 -202 17z"/>
</g>
</svg>
