<?xml version="1.0" standalone="no"?>
<!DOCTYPE svg PUBLIC "-//W3C//DTD SVG 20010904//EN"
 "http://www.w3.org/TR/2001/REC-SVG-20010904/DTD/svg10.dtd">
<svg version="1.0" xmlns="http://www.w3.org/2000/svg"
 width="1200.000000pt" height="1200.000000pt" viewBox="0 0 1200.000000 1200.000000"
 preserveAspectRatio="xMidYMid meet">

<g transform="translate(0.000000,1200.000000) scale(0.100000,-0.100000)"
fill="#000000" stroke="none">
<path d="M2315 9396 c-87 -38 -139 -117 -139 -211 0 -90 45 -163 129 -208 40
-22 47 -22 710 -27 l670 -5 12 -80 c6 -44 30 -206 53 -360 50 -339 125 -855
185 -1260 24 -165 66 -453 94 -640 155 -1055 201 -1367 201 -1374 0 -4 -37
-22 -82 -39 -207 -79 -398 -259 -493 -465 -65 -140 -80 -213 -79 -387 0 -132
3 -167 23 -235 95 -326 333 -564 657 -656 75 -22 100 -23 507 -27 l427 -3 -62
-42 c-90 -59 -195 -171 -250 -263 -273 -464 -42 -1042 482 -1206 64 -20 96
-23 220 -23 121 0 158 4 223 23 235 68 418 223 522 445 58 122 70 183 70 352
0 143 -2 154 -33 243 -36 105 -65 160 -129 243 -52 69 -152 161 -213 197 l-45
27 562 3 c309 1 817 1 1130 0 l568 -3 -54 -34 c-164 -100 -300 -294 -352 -500
-18 -71 -20 -104 -16 -210 6 -149 22 -215 82 -336 101 -204 291 -364 505 -425
106 -31 281 -38 388 -16 304 62 553 294 634 593 31 114 31 308 -1 418 -53 189
-181 366 -341 473 l-61 41 543 3 543 3 46 27 c156 92 149 322 -14 403 l-51 25
-2817 0 c-1830 0 -2835 3 -2869 10 -122 23 -254 119 -312 226 -139 258 -16
570 261 664 l62 21 2547 -1 c1799 0 2559 3 2587 11 58 15 113 56 141 104 26
45 21 20 259 1430 64 380 163 965 220 1301 113 668 113 666 60 746 -14 21 -44
50 -67 65 l-42 28 -2947 3 -2948 2 -6 33 c-3 17 -28 186 -55 375 -28 189 -57
360 -66 380 -20 49 -60 90 -109 113 -38 18 -82 19 -840 18 -637 0 -806 -2
-830 -13z m7445 -1372 c0 -6 -114 -687 -255 -1519 -30 -176 -88 -522 -130
-770 -41 -247 -78 -456 -80 -462 -3 -10 -473 -13 -2303 -13 l-2299 0 -6 48
c-7 54 -93 644 -137 932 -16 107 -38 260 -50 340 -11 80 -36 251 -56 380 -19
129 -41 280 -49 335 -8 55 -35 240 -60 410 -25 171 -45 313 -45 318 0 4 1231
7 2735 7 1504 0 2735 -3 2735 -6z m-4069 -4984 c148 -46 249 -184 249 -340 0
-265 -278 -438 -515 -321 -128 63 -198 178 -198 326 0 67 5 90 28 139 82 174
257 252 436 196z m3081 -12 c78 -36 142 -98 180 -175 27 -56 32 -75 32 -146 0
-103 -26 -175 -90 -246 -134 -149 -358 -159 -505 -24 -76 71 -111 141 -117
237 -8 127 40 233 141 312 99 77 245 94 359 42z"/>
</g>
</svg>
