<?xml version="1.0" standalone="no"?>
<!DOCTYPE svg PUBLIC "-//W3C//DTD SVG 20010904//EN"
 "http://www.w3.org/TR/2001/REC-SVG-20010904/DTD/svg10.dtd">
<svg version="1.0" xmlns="http://www.w3.org/2000/svg"
 width="474.000000pt" height="427.000000pt" viewBox="0 0 474.000000 427.000000"
 preserveAspectRatio="xMidYMid meet">

<g transform="translate(0.000000,427.000000) scale(0.100000,-0.100000)"
fill="#000000" stroke="none">
<path d="M2330 4260 c0 -5 -11 -10 -25 -10 -49 0 -254 -49 -376 -89 -376 -126
-742 -380 -988 -686 -217 -269 -358 -571 -436 -927 l-17 -78 -194 0 c-106 0
-216 -5 -244 -11 -43 -9 -50 -14 -50 -34 0 -13 4 -25 9 -27 5 -1 44 -48 88
-104 157 -201 443 -549 475 -576 29 -25 84 -23 111 5 74 73 537 676 537 699 0
37 -27 43 -222 46 -159 3 -190 6 -195 19 -14 37 73 306 149 457 233 466 650
816 1141 957 197 57 253 64 512 64 268 0 333 -9 534 -71 952 -296 1495 -1269
1246 -2229 -111 -428 -380 -802 -759 -1056 -310 -209 -643 -311 -1011 -310
-469 1 -876 153 -1235 461 -52 45 -113 90 -135 100 -54 25 -106 14 -153 -33
-28 -29 -36 -45 -40 -86 -4 -44 -1 -57 21 -89 26 -36 125 -130 217 -204 245
-197 696 -391 991 -424 32 -4 59 -11 59 -15 0 -5 122 -9 270 -9 149 0 270 4
270 8 0 5 36 14 80 21 262 40 582 167 823 325 479 316 827 841 924 1396 10 52
21 97 25 98 12 5 10 572 -2 572 -5 0 -10 9 -10 19 0 47 -45 238 -86 361 -196
603 -658 1087 -1269 1330 -149 59 -392 120 -480 120 -19 0 -35 5 -35 10 0 6
-93 10 -260 10 -167 0 -260 -4 -260 -10z"/>
<path d="M2535 3511 c-16 -10 -39 -28 -50 -41 -20 -22 -20 -36 -20 -711 l0
-689 38 -37 37 -38 609 -3 608 -3 32 27 c46 39 64 79 58 132 -6 53 -31 91 -78
114 -31 16 -77 18 -526 18 l-492 0 -3 578 c-3 537 -4 580 -21 605 -41 63 -131
86 -192 48z"/>
</g>
</svg>
