<?xml version="1.0" standalone="no"?>
<!DOCTYPE svg PUBLIC "-//W3C//DTD SVG 20010904//EN"
 "http://www.w3.org/TR/2001/REC-SVG-20010904/DTD/svg10.dtd">
<svg version="1.0" xmlns="http://www.w3.org/2000/svg"
 width="512.000000pt" height="512.000000pt" viewBox="0 0 512.000000 512.000000"
 preserveAspectRatio="xMidYMid meet">

<g transform="translate(0.000000,512.000000) scale(0.100000,-0.100000)"
fill="#000000" stroke="none">
<path d="M1225 5105 c-508 -81 -899 -466 -980 -965 -21 -132 -22 -627 -1 -656
13 -17 31 -19 193 -24 l178 -5 0 -1265 0 -1265 -178 -5 c-162 -5 -180 -7 -193
-24 -11 -16 -14 -67 -14 -247 0 -124 5 -250 10 -280 24 -127 114 -250 229
-312 107 -59 29 -57 1926 -57 1896 0 1819 -2 1926 57 111 60 206 190 229 312
5 29 10 156 10 280 0 180 -3 231 -14 247 -13 17 -31 20 -178 24 l-163 5 -3
963 -2 962 323 0 324 0 21 23 c21 22 22 33 22 179 0 137 -2 157 -18 171 -17
15 -55 17 -340 17 l-322 0 0 110 0 110 159 0 160 0 20 26 c20 25 21 39 21 263
0 369 -25 514 -124 716 -170 346 -493 583 -876 641 -131 19 -2221 19 -2345 -1z
m2357 -144 c89 -18 222 -66 304 -110 191 -103 337 -257 434 -456 84 -171 92
-218 97 -527 l5 -268 -2027 0 -2028 0 6 248 c6 267 16 335 67 468 138 360 464
612 845 653 124 14 2228 7 2297 -8z m486 -1603 l3 -108 -319 0 -319 0 -27 -25
c-20 -18 -26 -34 -26 -65 l0 -40 -160 0 -160 0 0 175 0 175 503 -2 502 -3 3
-107z m-2318 -366 c0 -464 0 -469 21 -488 20 -18 45 -19 631 -19 l610 0 19 24
c17 21 19 41 19 242 l0 219 159 0 158 0 6 -42 c11 -79 5 -78 373 -78 l324 0
-2 -962 -3 -963 -603 -3 -602 -2 49 61 c27 34 65 94 83 135 l33 74 107 0 c103
0 107 1 127 26 20 25 21 40 21 216 0 187 0 189 -25 213 -22 23 -32 25 -120 25
l-95 0 0 87 c0 66 -4 91 -17 105 -15 17 -48 18 -623 18 -605 0 -607 0 -626
-21 -18 -20 -19 -40 -19 -313 0 -253 3 -299 19 -350 25 -85 67 -163 115 -218
23 -25 41 -49 41 -52 0 -3 -263 -6 -585 -6 l-585 0 0 1270 0 1270 495 0 495 0
0 -468z m1160 53 l0 -415 -505 0 -505 0 0 415 0 415 505 0 505 0 0 -415z
m1840 0 l0 -55 -612 2 -613 3 -3 53 -3 52 615 0 616 0 0 -55z m-1850 -1522 c0
-298 -20 -372 -128 -480 -105 -104 -295 -146 -520 -113 -175 25 -320 161 -352
329 -5 29 -10 150 -10 267 l0 214 505 0 505 0 0 -217z m235 -93 l0 -95 -47 -3
-48 -3 0 94 c0 51 3 97 7 101 4 4 25 6 48 4 l40 -3 0 -95z m1285 -848 l0 -199
-30 -61 c-36 -71 -82 -115 -160 -151 l-55 -26 -1775 0 -1775 0 -55 26 c-71 34
-126 89 -159 158 -25 54 -26 65 -29 254 l-3 197 2020 0 2021 0 0 -198z"/>
<path d="M1705 4218 c-75 -41 -74 -148 2 -187 42 -21 83 -13 119 23 26 26 34
42 34 71 0 74 -91 129 -155 93z"/>
<path d="M2084 4196 c-88 -88 13 -220 125 -162 31 17 51 54 51 97 0 46 -56 99
-105 99 -29 0 -45 -8 -71 -34z"/>
<path d="M2484 4196 c-47 -47 -47 -95 0 -142 69 -69 176 -26 176 71 0 97 -107
140 -176 71z"/>
<path d="M2888 4207 c-79 -65 -39 -187 61 -187 46 0 79 23 98 67 40 96 -80
186 -159 120z"/>
</g>
</svg>
