<?xml version="1.0" standalone="no"?>
<!DOCTYPE svg PUBLIC "-//W3C//DTD SVG 20010904//EN"
 "http://www.w3.org/TR/2001/REC-SVG-20010904/DTD/svg10.dtd">
<svg version="1.0" xmlns="http://www.w3.org/2000/svg"
 width="1200.000000pt" height="1200.000000pt" viewBox="0 0 1200.000000 1200.000000"
 preserveAspectRatio="xMidYMid meet">

<g transform="translate(0.000000,1200.000000) scale(0.100000,-0.100000)"
fill="#000000" stroke="none">
<path d="M8930 10101 c-29 -15 -56 -55 -159 -232 -312 -542 -357 -619 -400
-694 l-46 -80 -6 260 c-4 210 -8 268 -22 303 -74 190 -204 316 -387 374 l-75
23 -2920 0 -2920 0 -75 -23 c-171 -54 -303 -177 -373 -347 l-32 -80 -3 -3625
c-2 -2740 0 -3638 9 -3680 25 -121 114 -261 212 -335 70 -54 185 -103 264
-115 94 -13 5743 -13 5838 0 79 12 190 60 262 115 102 77 191 216 213 334 6
35 10 584 10 1564 l0 1510 82 141 c44 78 116 201 160 274 43 73 78 135 78 138
0 2 12 23 26 45 14 22 85 145 158 272 118 206 300 522 391 677 17 30 103 179
190 330 87 151 192 334 233 405 41 72 90 155 107 185 17 30 67 116 110 190 43
74 136 234 205 355 70 121 197 342 283 491 220 382 223 366 -78 537 -158 89
-278 158 -365 209 -52 30 -156 90 -230 133 -74 43 -189 110 -255 148 -113 66
-215 124 -330 189 -58 32 -106 35 -155 9z m217 -372 c119 -70 161 -94 448
-259 61 -35 137 -80 171 -99 33 -20 135 -79 227 -131 92 -52 167 -99 167 -104
0 -5 -37 -72 -82 -150 -45 -77 -107 -185 -137 -238 -31 -54 -60 -98 -65 -98
-4 0 -56 28 -115 61 -58 34 -209 121 -336 194 -126 73 -270 156 -320 185 -49
28 -145 83 -212 122 -68 38 -123 72 -123 76 0 7 80 149 183 327 90 154 97 165
102 165 3 0 44 -23 92 -51z m-1304 25 c60 -20 135 -88 167 -150 l25 -49 3
-478 3 -478 -35 -57 c-18 -31 -83 -142 -143 -247 -60 -104 -142 -246 -181
-314 -40 -68 -72 -124 -72 -126 0 -2 -43 -76 -96 -166 -53 -90 -115 -198 -139
-239 -45 -80 -260 -452 -470 -815 -71 -121 -145 -249 -165 -285 -20 -36 -63
-110 -95 -165 -171 -294 -474 -820 -512 -889 l-44 -78 -25 -222 c-13 -121 -31
-275 -39 -341 -8 -66 -24 -203 -35 -305 -22 -196 -76 -667 -110 -960 -25 -216
-25 -237 0 -277 27 -46 64 -66 119 -67 60 -1 -1 -43 576 396 83 63 227 172
320 243 94 71 215 163 270 205 203 156 412 314 467 354 61 44 74 62 200 281
73 129 111 193 182 315 l26 45 -2 -1275 -3 -1275 -27 -45 c-34 -58 -81 -102
-138 -132 l-45 -23 -2903 -3 c-2843 -2 -2905 -2 -2947 17 -67 29 -129 93 -156
159 l-24 57 0 3590 0 3590 24 53 c30 66 107 137 170 156 39 13 460 15 2927 15
2609 1 2885 0 2927 -15z m1307 -1017 c267 -154 508 -294 536 -311 l51 -32 -75
-129 c-41 -72 -107 -186 -147 -255 -40 -69 -105 -181 -145 -250 -39 -69 -151
-262 -247 -430 -233 -404 -449 -778 -533 -920 -37 -63 -104 -180 -150 -260
-133 -233 -305 -531 -418 -725 -181 -312 -247 -426 -327 -568 -49 -85 -83
-136 -91 -133 -7 3 -127 71 -266 152 -139 81 -273 158 -298 172 -25 14 -74 42
-109 64 -34 21 -65 38 -68 38 -3 0 -42 22 -87 49 -44 26 -125 74 -178 105 -54
32 -98 61 -98 65 0 4 4 11 9 16 5 6 34 53 63 105 96 169 646 1122 804 1393 39
67 158 273 264 457 205 358 238 415 321 555 29 50 69 119 89 155 20 36 79 139
132 230 98 170 371 642 414 718 23 38 27 41 47 31 12 -7 240 -138 507 -292z
m-2764 -3636 c5 -5 65 -42 134 -81 69 -40 231 -133 360 -207 129 -75 294 -170
365 -211 72 -42 149 -86 173 -100 23 -13 42 -25 42 -27 0 -3 -357 -276 -745
-570 -93 -71 -232 -176 -308 -234 -168 -129 -217 -164 -222 -160 -3 4 34 363
64 609 11 91 28 228 36 305 9 77 29 257 45 400 17 143 30 266 30 273 0 14 12
16 26 3z"/>
<path d="M3349 8467 c-93 -62 -85 -193 15 -241 31 -15 172 -16 1553 -16 1425
0 1520 1 1552 18 48 24 73 62 79 120 4 48 2 53 -36 94 l-41 43 -1544 3 -1544
2 -34 -23z"/>
<path d="M3362 7393 c-51 -25 -77 -69 -76 -130 0 -46 4 -58 33 -87 18 -18 49
-38 69 -43 55 -15 3050 -11 3077 4 105 59 111 194 10 250 l-40 23 -1520 0
c-1380 0 -1523 -2 -1553 -17z"/>
</g>
</svg>
